<?xml version="1.0" encoding="UTF-8"?>
<svg id="_圖層_1" data-name="圖層 1" xmlns="http://www.w3.org/2000/svg" viewBox="0 0 1944.57 109.11">
  <defs>
    <style>
      .cls-1 {
        fill: #f4f4f4;
      }

      .cls-1, .cls-2, .cls-3, .cls-4, .cls-5, .cls-6 {
        stroke-miterlimit: 10;
      }

      .cls-1, .cls-2, .cls-5 {
        stroke: #d1d1d1;
      }

      .cls-7 {
        fill: #f7f6d5;
      }

      .cls-7, .cls-8, .cls-9, .cls-10, .cls-11, .cls-12, .cls-13 {
        stroke-width: 0px;
      }

      .cls-8 {
        fill: #92e3ff;
      }

      .cls-2 {
        fill: #fff;
      }

      .cls-9 {
        fill: #fceca9;
      }

      .cls-3 {
        fill: #d1d1d1;
        stroke: #bababa;
      }

      .cls-4 {
        stroke: #fbf3ff;
      }

      .cls-4, .cls-6 {
        fill: none;
        stroke-linecap: round;
        stroke-width: 13px;
      }

      .cls-5 {
        fill: #fff4d2;
      }

      .cls-10 {
        fill: #f7ecad;
      }

      .cls-11 {
        fill: #e8dfb3;
      }

      .cls-12 {
        fill: #c3e254;
      }

      .cls-13 {
        fill: #e2d939;
      }

      .cls-6 {
        stroke: #defffd;
      }
    </style>
  </defs>
  <path class="cls-6" d="M30.72,42.87c49.49,0,49.49,14,98.99,14s49.49-14,98.99-14,49.49,14,98.99,14,49.49-14,98.99-14,49.49,14,98.99,14,49.49-14,98.99-14,49.49,14,98.99,14,49.49-14,98.99-14,49.49,14,98.99,14,49.49-14,98.99-14,49.49,14,98.99,14,49.49-14,98.99-14,49.5,14,98.99,14,49.49-14,98.99-14,49.49,14,98.99,14,49.49-14,98.99-14,49.5,14,98.99,14,49.5-14,99-14,49.5,14,99,14"/>
  <path class="cls-6" d="M30.72,66.98c49.49,0,49.49,14,98.99,14s49.49-14,98.99-14,49.49,14,98.99,14,49.49-14,98.99-14,49.49,14,98.99,14,49.49-14,98.99-14,49.49,14,98.99,14,49.49-14,98.99-14,49.49,14,98.99,14,49.49-14,98.99-14,49.49,14,98.99,14,49.49-14,98.99-14,49.5,14,98.99,14,49.49-14,98.99-14,49.49,14,98.99,14,49.49-14,98.99-14,49.5,14,98.99,14,49.5-14,99-14,49.5,14,99,14"/>
  <path class="cls-4" d="M31.89,29.95c49.49,0,49.49,14,98.99,14s49.49-14,98.99-14,49.49,14,98.99,14,49.49-14,98.99-14,49.49,14,98.99,14,49.49-14,98.99-14,49.49,14,98.99,14,49.49-14,98.99-14,49.49,14,98.99,14,49.49-14,98.99-14,49.49,14,98.99,14,49.49-14,98.99-14,49.5,14,98.99,14,49.49-14,98.99-14,49.49,14,98.99,14,49.49-14,98.99-14,49.5,14,98.99,14,49.5-14,99-14,49.5,14,99,14"/>
  <path class="cls-4" d="M33.06,55.03c49.49,0,49.49,14,98.99,14s49.49-14,98.99-14,49.49,14,98.99,14,49.49-14,98.99-14,49.49,14,98.99,14,49.49-14,98.99-14,49.49,14,98.99,14,49.49-14,98.99-14,49.49,14,98.99,14,49.49-14,98.99-14,49.49,14,98.99,14,49.49-14,98.99-14,49.5,14,98.99,14,49.49-14,98.99-14,49.49,14,98.99,14,49.49-14,98.99-14,49.5,14,98.99,14,49.5-14,99-14,49.5,14,99,14"/>
  <path class="cls-7" d="M107.39,52.16c-14.36,12-15.78,17.45-10.59,40.68-12.95-19.98-17.82-22.78-36.45-20.94,14.36-12,15.78-17.45,10.59-40.68,12.95,19.98,17.82,22.78,36.45,20.94Z"/>
  <path class="cls-7" d="M283.78,79.03c-13.46-.63-17.57,2.29-30.73,21.9,8-22.21,7.93-27.26-.55-37.73,13.46.63,17.57-2.29,30.73-21.9-8,22.21-7.93,27.26.55,37.73Z"/>
  <path class="cls-7" d="M512.2,31.42c-7.89,10.92-7.69,15.96,1.52,37.7-14.22-18.85-18.49-21.55-31.89-20.17,7.89-10.92,7.69-15.96-1.52-37.7,14.22,18.85,18.49,21.55,31.89,20.17Z"/>
  <path class="cls-10" d="M652.61,78.78c-15.28.04-18.69,2.16-25.46,15.85-.04-15.28-2.16-18.69-15.85-25.46,15.28-.04,18.69-2.16,25.46-15.85.04,15.28,2.16,18.69,15.85,25.46Z"/>
  <path class="cls-10" d="M993.21,44.99c-15.51,1.02-19.1,3.94-26.85,21.83.94-19.47-1-23.68-14.46-31.44,15.51-1.02,19.1-3.94,26.85-21.83-.94,19.47,1,23.68,14.46,31.44Z"/>
  <path class="cls-11" d="M1195.6,44.26c-10.24,11.69-10.72,16.29-3.55,34.42-13.11-14.43-17.45-16.04-32.46-12,10.24-11.69,10.72-16.29,3.55-34.42,13.11,14.43,17.45,16.04,32.46,12Z"/>
  <path class="cls-11" d="M1598.2,37.31c-15.51,1.02-19.1,3.94-26.85,21.83.94-19.47-1-23.68-14.46-31.44,15.51-1.02,19.1-3.94,26.85-21.83-.94,19.47,1,23.68,14.46,31.44Z"/>
  <path class="cls-9" d="M1913.24,88.19c-14.06-6.62-18.62-5.81-34.07,6.08,10.25-16.58,10.6-21.19,2.58-34.51,14.06,6.62,18.62,5.81,34.07-6.08-10.25,16.58-10.6,21.19-2.58,34.51Z"/>
  <path class="cls-10" d="M152.22,36.34c-10.96,3.44-13.05,6.22-15.63,20.83-2.58-14.61-4.67-17.4-15.63-20.83,10.96-3.44,13.05-6.22,15.63-20.83,2.58,14.61,4.67,17.4,15.63,20.83Z"/>
  <polygon class="cls-2" points="178.13 49.87 181.64 63.77 194.7 57.85 186.02 69.26 198.79 75.78 184.46 76.11 187.32 90.16 178.13 79.16 168.94 90.16 171.8 76.11 157.47 75.78 170.24 69.26 161.56 57.85 174.62 63.77 178.13 49.87"/>
  <polygon class="cls-2" points="1720.95 37.17 1724.46 51.07 1737.51 45.15 1728.84 56.56 1741.61 63.07 1727.27 63.41 1730.14 77.45 1720.95 66.45 1711.75 77.45 1714.62 63.41 1700.29 63.07 1713.05 56.56 1704.38 45.15 1717.43 51.07 1720.95 37.17"/>
  <polygon class="cls-3" points="384.7 23.23 386.99 32.28 395.49 28.42 389.84 35.86 398.16 40.1 388.82 40.32 390.69 49.46 384.7 42.3 378.71 49.46 380.58 40.32 371.24 40.1 379.56 35.86 373.91 28.42 382.41 32.28 384.7 23.23"/>
  <polygon class="cls-5" points="825.7 27.06 827.99 36.12 836.49 32.26 830.84 39.69 839.16 43.94 829.82 44.15 831.69 53.3 825.7 46.14 819.71 53.3 821.58 44.15 812.25 43.94 820.56 39.69 814.91 32.26 823.41 36.12 825.7 27.06"/>
  <polygon class="cls-5" points="1463.99 57.31 1466.27 66.36 1474.78 62.51 1469.13 69.94 1477.44 74.18 1468.11 74.4 1469.97 83.55 1463.99 76.38 1458 83.55 1459.86 74.4 1450.53 74.18 1458.85 69.94 1453.2 62.51 1461.7 66.36 1463.99 57.31"/>
  <polygon class="cls-1" points="1833.49 13.31 1836.68 25.92 1848.53 20.55 1840.65 30.91 1852.24 36.82 1839.23 37.12 1841.84 49.87 1833.49 39.89 1825.14 49.87 1827.75 37.12 1814.74 36.82 1826.33 30.91 1818.45 20.55 1830.3 25.92 1833.49 13.31"/>
  <circle class="cls-12" cx="304.89" cy="42.96" r="10.34"/>
  <circle class="cls-8" cx="546.79" cy="81.09" r="10.34"/>
  <circle class="cls-13" cx="1302.35" cy="72.37" r="10.34"/>
</svg>