<svg width="32" height="32" viewBox="0 0 32 32" fill="none" xmlns="http://www.w3.org/2000/svg">
<g clip-path="url(#clip0_432_187)">
<path d="M6.56122 19.5576C10.0412 19.5336 12.9212 19.4736 15.2012 19.3776C15.0452 19.9896 14.9492 20.5776 14.9132 21.1416C14.8772 21.7056 14.8592 22.3896 14.8592 23.1936H2.16922C2.26522 20.8656 2.31322 18.6876 2.31322 16.6596C2.31322 14.6316 2.26522 12.4536 2.16922 10.1256H6.56122V19.5576ZM23.6595 23.3736C20.9475 23.3736 18.9495 22.7976 17.6655 21.6456C16.3815 20.4936 15.7395 18.8496 15.7395 16.7136C15.7395 14.5656 16.3815 12.8676 17.6655 11.6196C18.9495 10.3716 20.9475 9.7476 23.6595 9.7476C27.4515 9.7476 29.9895 11.0496 31.2735 13.6536C30.1935 14.0256 28.9275 14.5836 27.4755 15.3276C27.1275 14.6556 26.5755 14.1576 25.8195 13.8336C25.0755 13.5096 24.3135 13.3476 23.5335 13.3476C22.3815 13.3476 21.5235 13.6536 20.9595 14.2656C20.3955 14.8656 20.1135 15.6096 20.1135 16.4976C20.1135 17.4576 20.4135 18.2436 21.0135 18.8556C21.6255 19.4556 22.5555 19.7556 23.8035 19.7556C24.7995 19.7556 25.5915 19.5936 26.1795 19.2696C26.7675 18.9336 27.1995 18.4056 27.4755 17.6856C28.4595 18.2136 29.7195 18.8076 31.2555 19.4676C30.6555 20.9196 29.6535 21.9336 28.2495 22.5096C26.8455 23.0856 25.3155 23.3736 23.6595 23.3736Z" fill="black"/>
</g>
<defs>
<clipPath id="clip0_432_187">
<rect width="32" height="32" fill="white"/>
</clipPath>
</defs>
</svg>
